<?xml version="1.0" encoding="utf-8"?>
<!-- Generator: Adobe Illustrator 16.0.3, SVG Export Plug-In . SVG Version: 6.00 Build 0)  -->
<!DOCTYPE svg PUBLIC "-//W3C//DTD SVG 1.1//EN" "http://www.w3.org/Graphics/SVG/1.1/DTD/svg11.dtd">
<svg version="1.1" id="Capa_1" xmlns="http://www.w3.org/2000/svg" xmlns:xlink="http://www.w3.org/1999/xlink" x="0px" y="0px"
	 width="612px" height="535.908px" viewBox="0 0 612 535.908" enable-background="new 0 0 612 535.908" xml:space="preserve">
<title>Icono Admin</title>
<g id="Capa_2">
	<g id="Capa_1-2">
		<path fill="#FFFFFF" d="M167.346,483.897c-3.426,1.67-6.949,3.131-10.552,4.375v23.207c5.786,2.637,11.684,5.076,17.69,7.318
			c20.79,7.871,42.531,12.951,64.656,15.108c9.381,0.851,18.792,1.342,28.193,2.002c36.526-0.256,72.633-7.816,106.194-22.236
			c61.469-26.461,110.818-74.954,138.353-135.949c0.102-0.212,0.198-0.425,0.29-0.641c3.185-7.515-0.325-16.188-7.839-19.373
			c-7.515-3.185-16.188,0.325-19.373,7.839C435.01,476.319,309.753,531.813,194.147,494.39
			C185.012,491.431,176.062,487.928,167.346,483.897z"/>
		<path fill="#FFFFFF" d="M24.317,377.121c-0.49-0.28-0.961-0.601-1.441-0.931c2.213,5.056,4.646,10.062,7.219,15.018
			c1.542,2.983,3.153,5.917,4.806,8.82c0.116-5.287,0.74-10.551,1.862-15.718c-3.124-1.782-6.248-3.595-9.361-5.396L24.317,377.121z
			"/>
		<path fill="#FFFFFF" d="M2.442,303.775c2.758,20.871,8.015,41.335,15.658,60.951l19.733-34.1
			c-5.6-20.189-8.445-41.042-8.46-61.993C29.177,193.838,64.1,123.288,123.694,78.09c33.42-25.29,70.903-41.148,112.553-46.265
			c12.783-1.522,25.653-2.191,38.525-2.002c26.501,0.33,52.121,5.796,76.92,15.158c59.349,22.36,107.331,67.464,133.317,125.317
			c0.004,0.01,0.009,0.02,0.014,0.03c3.406,7.417,12.18,10.668,19.596,7.262c7.417-3.406,10.668-12.18,7.262-19.596
			c-11.646-25.982-27.398-49.92-46.654-70.893c-41.084-44.676-96.039-74.183-155.974-83.749
			c-22.046-3.568-44.459-4.292-66.688-2.153c-31.574,2.914-62.363,11.501-90.887,25.35C90.642,56.112,42.986,107.588,18.211,170.719
			c-7.995,20.361-13.42,41.641-16.149,63.345C-0.809,257.22-0.681,280.651,2.442,303.775z"/>
		<path fill="#FFFFFF" d="M386.363,346.575c-16.979-8.442-33.847-17.12-50.6-26.03c-4.625-2.453-8.79-5.847-12.965-9.07
			c-3.925-3.023-5.557-3.334-9.381-0.4c-10.263,7.869-21.415,13.866-34.24,16.309c-16.86,3.224-32.398-0.721-46.896-9.341
			c-3.864-2.303-7.459-5.056-11.113-7.699c-1.924-1.668-4.762-1.73-6.758-0.15c-5.006,3.515-9.591,7.469-15.018,10.473
			c-5.426,3.004-10.913,5.797-16.439,8.561c1.322,1.041,2.684,2.103,4.005,3.104l22.387-12.875l29.975,51.9l-13.195,7.64
			c-3.233,1.882-6.327,3.684-9.451,5.456c0.795,3.888,1.383,7.814,1.763,11.764c0.318,3.633,0.353,7.285,0.1,10.923H375.65
			c7.359,0,14.688,0,22.026,0c4.155-0.02,5.616-1.521,5.547-5.616c-0.15-9.541-0.391-19.083-0.471-28.634
			C402.622,360.723,397.246,352.092,386.363,346.575z"/>
		<path fill="#FFFFFF" d="M333.23,200.874c-0.94-16.449-4.535-32.078-14.016-45.874c-7.346-10.88-18.404-18.711-31.106-22.026
			c-13.981-3.962-28.813-3.778-42.69,0.531c-16.85,5.196-28.354,16.469-35.492,32.388c-5.626,12.555-7.889,25.82-8.079,39.506
			c-0.03,2.393,0.21,4.656-2.232,6.468c-1.182,0.901-1.683,3.083-2.003,4.786c-2.242,12.014-1.392,24.178,5.867,33.87
			c6.588,8.8,10.603,18.772,16.31,27.893c9.571,15.339,22.636,25.991,40.507,30.156c9.091,2.112,17.642,0.05,25.891-3.654
			c15.639-7.019,26.161-19.113,33.609-34.19c1.612-3.244,2.924-6.678,4.415-10.012c0.288-0.83,0.741-1.593,1.332-2.243
			c9.981-8.65,12.274-20.324,13.396-33.339c-0.521-2.994-1.111-6.588-1.762-10.172c-0.141-0.761-0.28-1.772-0.801-2.153
			C332.13,209.655,333.491,205.069,333.23,200.874z"/>
		<path fill="#F1C11F" d="M509.719,282.44c1.421-0.081,2.835-0.252,4.234-0.511l17.44-0.08l-8.22-8.69l8.22,8.69
			c1.156,0.295,2.335,0.492,3.524,0.591c20.538,0,41.075,0,61.612,0c9.001-0.011,15.559-6.397,15.469-14.768
			c-0.091-8.37-6.518-14.497-15.408-14.477c-16.993,0-33.983,0-50.97,0c-1.195,0.083-2.383,0.25-3.555,0.5l-2.253,2.193l2.253-2.193
			c-0.58-0.241-1.189-0.406-1.813-0.49c-11.713,0-23.434,0-35.161,0c-0.632,0.073-1.253,0.217-1.852,0.43
			c-1.41-0.221-2.83-0.368-4.256-0.44c-25.449,0-50.899,0-76.35,0h-3.724c0.268-0.638,0.603-1.246,1.001-1.812
			c13.709-14.524,27.432-29.041,41.168-43.551c7.499-7.939,6.218-18.832-2.843-24.028c-5.709-3.273-12.915-2.214-17.44,2.563
			c-15.866,16.773-31.731,33.556-47.597,50.349c-6.668,7.108-13.405,14.197-20.023,21.385c-5.073,5.47-5.104,13.916-0.07,19.423
			c14.497,15.479,29.114,30.847,43.691,46.254c7.619,8.07,15.309,16.079,22.837,24.229c6.288,6.799,15.038,7.59,21.596,1.723
			c6.188-5.537,6.397-14.968,0.32-21.426c-13.656-14.443-27.306-28.887-40.948-43.331c-0.57-0.61-1.051-1.331-1.872-2.332
			c1.412-0.08,2.362-0.19,3.304-0.19C451.263,282.471,480.491,282.467,509.719,282.44z"/>
		<path fill="#F1C11F" d="M45.032,425.048c-5.997,3.284-11.884,6.778-18.102,10.362l20.635,35.792l20.203-11.613
			c10.553,10.591,23.775,18.13,38.266,21.815c0,5.156,0,10.292,0,15.418c0.02,2.724,0.149,5.437,0.24,8.149h41.168v-23.588
			c3.014-0.814,5.984-1.78,8.9-2.893c10.568-3.964,20.212-10.054,28.334-17.892c0.699-0.424,1.561-0.483,2.313-0.16
			c5.786,3.214,11.503,6.548,17.25,9.842c0.461,0.271,0.951,0.48,1.662,0.831l20.604-35.603c-1.552-0.931-2.964-1.812-4.405-2.652
			c-4.786-2.773-9.552-5.587-14.377-8.271c-0.039-0.014-0.077-0.029-0.114-0.045c-1.064-0.465-1.552-1.703-1.087-2.768
			c1.355-4.778,2.237-9.677,2.633-14.628c0.28-3.357,0.28-6.733,0-10.092c-0.553-5.02-1.393-10.003-2.513-14.928
			c-0.411-1.832-0.091-2.753,1.592-3.684c6.066-3.354,12.023-6.889,18.312-10.513l-20.614-35.762l-19.733,11.343
			c-4.346-3.294-8.41-6.588-12.625-9.591c-0.711-0.53-1.422-1.031-2.143-1.532c-6.706-4.445-14.096-7.76-21.876-9.812
			c-1.512-0.42-2.103-0.98-2.103-2.653c0.091-6.237,0-12.475,0-18.712v-2.723h-41.208v23.297c-1.592,0.48-3.063,0.892-4.516,1.352
			c-12.009,3.743-22.979,10.236-32.037,18.963c-1.352,1.302-2.283,1.491-3.945,0.49c-5.837-3.544-11.813-6.888-18.021-10.472
			l-6.178,10.662c-4.785,8.33-9.581,16.619-14.447,25.029c0.651,0.431,1.242,0.881,1.883,1.252
			c5.597,3.233,11.173,6.487,16.81,9.661c0.074,0.025,0.146,0.056,0.218,0.09c1.063,0.508,1.512,1.781,1.004,2.844
			c-3.418,11.831-3.738,24.342-0.932,36.332c0.24,1.052,0.461,2.053,0.741,3.054C47.335,423.056,46.904,424.047,45.032,425.048z
			 M114.304,449.997c-18.368-4.821-32.435-19.608-36.333-38.194c-0.694-3.373-1.029-6.81-1.001-10.252
			c0.001-0.218,0.004-0.436,0.009-0.652c0.554-27.642,23.41-49.601,51.051-49.047c3.897,0.072,7.771,0.621,11.534,1.632
			c23.774,6.414,39.343,29.182,36.693,53.663c-2.728,25.452-24.344,44.667-49.939,44.393
			C122.265,451.531,118.228,451.013,114.304,449.997L114.304,449.997z"/>
	</g>
</g>
</svg>
