<svg xmlns="http://www.w3.org/2000/svg" viewBox="0 0 272.72 421.04"><title>Icono Funcionamiento de los bombillos</title><g id="Capa_2" data-name="Capa 2"><g id="Capa_1-2" data-name="Capa 1"><path d="M62.12,319.82c-1.87-12.87-3.4-25.06-5.45-37.16-3.52-20.78-13.62-38.75-24.64-56.3C17.77,203.67,6.64,179.67,2.11,153-5.67,107.3,8.22,68.77,41.92,37.49,67.81,13.47,98.76,1.07,134.2.05,196.06-1.73,255,42.72,269.62,102.81c5.8,23.9,2.91,47.63-4.1,71-6.38,21.27-17.06,40.47-28.94,59-16.19,25.22-24.13,52.72-24.76,82.48-.08,3.53-.78,4.95-4.7,4.94q-70.76-.19-141.5-.1C64.31,320.06,63,319.89,62.12,319.82ZM187,295.07c.46-2.45.89-4.71,1.3-7,3.71-20.39,9.4-40,19.92-58.17,9.51-16.38,19.22-32.76,27.21-49.89,10.26-22,14.32-45.47,9.3-69.59-9-43.3-47.12-76.14-90.6-82.88-44-6.81-80.2,9.12-107.93,43.61C27.86,93.9,22.4,120.43,27.31,148.8c4,23.06,14.19,43.85,26.51,63.61,10.59,17,20.8,34.14,25.54,53.87,2.28,9.49,4.31,19.05,6.55,29,8.35,0,16.82-.05,25.29,0,3,0,3-1.75,3.12-3.92.38-9.82,1.06-19.64,1.21-29.46.42-27.66.07-55.28-5.09-82.61-.52-2.8-1.27-4-4.3-4-5.32-.06-10.65-.55-16-1-14.68-1.24-23.63-9.94-24.35-23.55-.88-16.78,12.51-29,27-24,5,1.72,10.27,5,13.27,9.16,5,6.88,8.45,14.92,12.12,22.67,1.28,2.7,2.27,4.22,5.59,4.1,7.49-.29,15-.24,22.49,0,3.14.08,4.33-1,5.69-3.93,3.74-8.08,7.37-16.47,12.7-23.48s13.33-11.11,22.88-9.22c9.84,2,16.71,11.47,16.9,23.06.2,12.1-6.81,21.72-18.29,24.06a86.72,86.72,0,0,1-19.32,1.94c-5.49-.14-6.95,2.05-7.68,6.9a464.28,464.28,0,0,0-4.64,80.67c.26,10.75,1,21.49,1.53,32.36Zm-45,0c0-20.45-.53-40.27.14-60.05s2.56-39.28,3.91-58.92H124.28c1.38,20.07,3.27,39.77,3.95,59.51s.15,39.48.15,59.46ZM106.73,162.88c-2.24-5-3.29-9.19-5.71-12.31a68.34,68.34,0,0,0-11.5-11.17c-2.73-2.18-5.79-.74-8,1.66-5.76,6.33-3.22,17.21,5,19.34C92.64,162,99.15,162,106.73,162.88Zm57.2-.24c6.58-.53,12.27-.57,17.79-1.55,8.26-1.46,11.83-8.16,9.22-16.2-1.9-5.85-6.72-7.82-12.14-4.69C170.57,145,167.34,153.15,163.93,162.64Z"/><path d="M211.36,331.88v19.23H61.53V331.88Z"/><path d="M62.12,363.47H210.54c-3.24,6.92-6,13-9,18.93-.39.77-2.3,1.06-3.51,1.06q-61.63.09-123.25-.08a6.58,6.58,0,0,1-4.88-2.92C67.13,375.26,64.93,369.75,62.12,363.47Z"/><path d="M77.93,395.45H194.18c-12.31,15.29-28,22.65-46,24.8C121.42,423.44,97.52,417.42,77.93,395.45Z"/></g></g></svg>