<svg xmlns="http://www.w3.org/2000/svg" viewBox="0 0 329.41 336.93"><title>Icono  Corriente</title><g id="Capa_2" data-name="Capa 2"><g id="Capa_1-2" data-name="Capa 1"><path d="M0,336.93V205.49H32V7.88h32.8V56.55c13.18,0,25.69.21,38.17-.25,1.65-.07,3.57-3.39,4.68-5.55,8.41-16.44,16.65-33,25.59-50.75,12,30,23.62,59,35.9,89.62l48-64c6.56,12.93,13.36,24.49,18.33,36.79,3.61,8.92,8.81,12.11,17.87,10.77,3.14-.46,6.42-.07,10.49-.07V7.89h32.91V205.16h32.68V336.93ZM65.41,204.57H263.57V106.2c-8.38,0-16.13-.86-23.62.18-14,2-23.75-1.84-27.31-16.55-.09-.37-.92-.56-2-1.15l-50.32,66.77L129.49,79.32c-2.15,9.76-7,10.76-13.18,10.44-8.79-.46-17.62-.12-26.44-.12H65.41Z"/></g></g></svg>