<?xml version="1.0" encoding="utf-8"?>
<!-- Generator: Adobe Illustrator 16.0.3, SVG Export Plug-In . SVG Version: 6.00 Build 0)  -->
<!DOCTYPE svg PUBLIC "-//W3C//DTD SVG 1.1//EN" "http://www.w3.org/Graphics/SVG/1.1/DTD/svg11.dtd">
<svg version="1.1" id="Capa_1" xmlns="http://www.w3.org/2000/svg" xmlns:xlink="http://www.w3.org/1999/xlink" x="0px" y="0px"
	 width="612.026px" height="535.933px" viewBox="-0.013 0 612.026 535.933" enable-background="new -0.013 0 612.026 535.933"
	 xml:space="preserve">
<title>Icono Empresa</title>
<g id="Capa_2">
	<g id="Capa_1-2">
		<path fill="#FFFFFF" d="M609.577,303.8c-4.054,30.526-13.413,60.109-27.656,87.412c-30.752,58.899-82.193,104.35-144.433,127.608
			c-20.78,7.853-42.507,12.923-64.616,15.081c-9.377,0.881-18.79,1.363-28.186,2.031c-36.531-0.265-72.64-7.833-106.202-22.259
			c-61.467-26.458-110.814-74.951-138.34-135.947c-0.179-0.355-0.344-0.72-0.493-1.089c-3.062-7.563,0.588-16.177,8.15-19.239
			c7.563-3.062,16.178,0.588,19.239,8.151c12.541,27.935,30.389,53.167,52.55,74.298c92.059,88.063,237.103,88.133,329.246,0.158
			c9.267-8.832,17.806-18.398,25.533-28.604c79.317-104.754,58.696-253.973-46.058-333.29
			c-33.416-25.31-70.857-41.169-112.593-46.271c-12.786-1.531-25.66-2.207-38.536-2.022c-26.497,0.325-52.113,5.806-76.914,15.164
			c-59.325,22.375-107.284,67.476-133.257,125.318l0,0c-3.398,7.427-12.174,10.693-19.602,7.294
			c-7.427-3.399-10.693-12.175-7.294-19.602c11.651-25.977,27.41-49.908,46.669-70.876C187.87,42.441,242.822,12.927,302.757,3.35
			c22.047-3.566,44.461-4.289,66.692-2.151c31.571,2.911,62.359,11.484,90.891,25.31c61.039,29.578,108.691,81.068,133.461,144.21
			c8,20.363,13.425,41.646,16.147,63.354C612.82,257.235,612.696,280.67,609.577,303.8z"/>
		<path fill="#FFFFFF" d="M246.21,346.593c16.984-8.478,33.852-17.168,50.602-26.071c4.638-2.458,8.802-5.853,12.984-9.07
			c3.923-3.023,5.556-3.33,9.376-0.399c10.268,7.865,21.425,13.866,34.242,16.305c16.88,3.219,32.396-0.723,46.901-9.349
			c3.896-2.29,7.484-5.045,11.13-7.688c2.281-1.65,4.498-1.753,6.761-0.157c4.989,3.515,9.683,7.54,14.987,10.479
			c9.775,5.436,19.932,10.212,29.893,15.331c7.493,3.858,14.979,7.726,22.397,11.761c10.443,5.694,14.607,14.793,14.44,26.469
			c-0.111,8.431,0.529,16.871,0.733,25.311c0.13,6.548-0.983,7.624-7.42,7.624H256.875c-7.336,0-14.663,0-21.989,0
			c-4.165-0.047-5.63-1.521-5.565-5.611c0.148-9.544,0.399-19.087,0.474-28.64C229.905,360.727,235.266,352.092,246.21,346.593z"/>
		<path fill="#FFFFFF" d="M299.297,200.954c0.928-16.444,4.526-32.071,14.014-45.863c7.333-10.898,18.391-18.747,31.098-22.073
			c13.972-3.961,28.794-3.778,42.663,0.528c16.843,5.194,28.353,16.472,35.484,32.387c5.63,12.558,7.884,25.83,8.078,39.51
			c0.037,2.412-0.204,4.637,2.235,6.492c1.215,0.89,1.716,3.079,2.031,4.776c2.244,12.011,1.4,24.188-5.861,33.871
			c-6.595,8.811-10.61,18.771-16.305,27.897c-9.581,15.313-22.64,25.988-40.521,30.152c-9.08,2.105-17.631,0.056-25.886-3.654
			c-15.637-7.021-26.182-19.115-33.602-34.187c-1.642-3.283-2.931-6.705-4.424-10.053c-0.283-0.829-0.734-1.59-1.326-2.235
			c-9.979-8.653-12.279-20.348-13.393-33.333c0.51-3.023,1.104-6.622,1.753-10.202c0.139-0.76,0.278-1.771,0.798-2.161
			C300.392,209.663,299.028,205.072,299.297,200.954z"/>
		<path fill="#F1C11E" d="M102.269,282.478c-1.422-0.079-2.838-0.247-4.238-0.501l-17.445-0.093c2.751-2.894,5.493-5.79,8.227-8.69
			c-2.739,2.9-5.481,5.797-8.227,8.69c-1.152,0.302-2.328,0.501-3.516,0.594c-20.533,0-41.074,0-61.62,0
			c-8.969-0.019-15.544-6.372-15.461-14.774c0.084-8.403,6.511-14.505,15.387-14.505c16.997,0,33.985,0,50.964,0
			c1.197,0.08,2.388,0.248,3.562,0.5l2.254,2.198l-2.254-2.198c0.593-0.25,1.217-0.415,1.854-0.491c11.687,0,23.403,0,35.151,0
			c0.633,0.074,1.255,0.221,1.854,0.436c1.41-0.226,2.831-0.375,4.257-0.445c25.449,0,50.899,0,76.349,0h3.71
			c-0.259-0.655-0.592-1.277-0.993-1.855c-13.738-14.512-27.452-29.02-41.142-43.525c-7.494-7.921-6.224-18.818,2.838-24.012
			c5.712-3.271,12.92-2.209,17.445,2.569c15.872,16.768,31.731,33.552,47.579,50.352c6.705,7.104,13.438,14.19,20.051,21.378
			c5.08,5.464,5.116,13.913,0.084,19.42c-14.496,15.479-29.122,30.848-43.692,46.262c-7.624,8.06-15.313,16.073-22.844,24.226
			c-6.278,6.798-15.043,7.586-21.6,1.725c-6.187-5.537-6.391-14.941-0.315-21.434c13.651-14.438,27.301-28.881,40.947-43.331
			c0.547-0.603,1.029-1.298,1.854-2.327c-1.456-0.084-2.384-0.186-3.312-0.186C160.745,282.471,131.508,282.478,102.269,282.478z"/>
	</g>
</g>
</svg>
