<svg xmlns="http://www.w3.org/2000/svg" viewBox="0 0 261.63 185.18"><defs><style>.cls-1{fill:#f1c11f;}</style></defs><title>Flechas</title><g id="Capa_2" data-name="Capa 2"><g id="Capa_1-2" data-name="Capa 1"><path class="cls-1" d="M56.81,108.4c-1,0-2,.11-3.57.2.89,1.11,1.4,1.86,2,2.52q22.08,23.35,44.16,46.72c6.55,7,6.32,17.13-.35,23.1-7.07,6.32-16.51,5.47-23.28-1.86-8.13-8.79-16.41-17.42-24.63-26.12-15.71-16.62-31.48-33.18-47.11-49.88a15.44,15.44,0,0,1,.08-20.94c7.14-7.75,14.4-15.39,21.63-23Q51.38,31.92,77.05,4.8A15.38,15.38,0,0,1,95.86,2c9.77,5.6,11.15,17.36,3.07,25.89q-22.22,23.46-44.39,47a10.71,10.71,0,0,0-1.08,2h4q41.16,0,82.32,0a44.61,44.61,0,0,1,4.59.47,9.51,9.51,0,0,1,2-.47q18.95,0,37.9,0a8.33,8.33,0,0,1,2,.53c-.8.8-1.61,1.58-2.42,2.37.81-.79,1.62-1.57,2.42-2.37a28.15,28.15,0,0,1,3.84-.54q27.48,0,54.95,0c9.57,0,16.5,6.58,16.6,15.65s-7,15.9-16.68,15.92q-33.21,0-66.44,0a22.71,22.71,0,0,1-3.79-.63l-8.87-9.38,8.87,9.38-18.8.09a37.71,37.71,0,0,1-4.57.55Q104.07,108.43,56.81,108.4Z"/></g></g></svg>