<svg xmlns="http://www.w3.org/2000/svg" viewBox="0 0 517.68 626"><title>Icono menu salir</title><g id="Capa_2" data-name="Capa 2"><g id="Capa_1-2" data-name="Capa 1"><path d="M418.87,0c8.26,2.9,17.11,4.72,24.67,8.89,25.35,14,37.9,36.18,38.11,65,.28,38.32.07,76.65.07,115v8c-7.43-6.28-13.88-11.66-20.23-17.15-7.94-6.85-15.62-14-23.76-20.6-3.38-2.74-4.46-5.59-4.43-9.79.17-24.82.14-49.66.05-74.49-.05-13.24-6.08-22.47-16.7-25.43a39.69,39.69,0,0,0-10.37-1.25q-165.48-.09-331-.07c-10.23,0-19,3-23.75,12.53C49.45,64.94,48.64,70.2,48.51,75c-.39,14.16-.14,28.33-.14,42.49q0,216-.06,432c0,9.49,1.87,17.77,10,23.74,5.29,3.88,11.29,4.61,17.53,4.61h152q89,0,178,0c10.59,0,19.74-2.89,24.55-12.89,2.13-4.44,2.84-9.91,2.9-14.93.28-24.82.21-49.66.05-74.49,0-3.73,1.26-6.05,4.05-8.42,13.35-11.27,26.49-22.79,39.71-34.22,1.2-1,2.47-2,4.41-3.53.11,2.39.23,3.81.23,5.24,0,39.33.33,78.66-.11,118-.34,30.54-14.54,53.06-42,66.58-6.45,3.17-13.77,4.58-20.69,6.8h-356a18.26,18.26,0,0,0-2.7-1c-10.38-2.11-20.14-5.69-28.82-11.9C9.78,597.67,0,576.42,0,550.16Q.06,313,0,75.85c0-2.66-.06-5.34.19-8,2.34-25.19,13.71-45.1,35.86-57.67C44.29,5.52,53.9,3.32,62.87,0Z"/><path d="M517.68,313c-10.89,9.45-21.19,18.37-31.47,27.31Q465.12,358.68,444,377q-33.39,28.92-66.81,57.78c-11.06,9.58-22.32,19-33.06,28.88-5.63,5.2-11.26,8.07-18.84,5.24-7.75-2.89-11-9.35-11.36-16.71-.76-17.62-.69-35.28-.92-52.93-.06-4.48,0-9,0-14.17h-6.17c-45,0-90-.38-135,.2-17,.21-27.64-11.74-27.35-27.17.57-30.14.15-60.31.18-90.47,0-17.5,9.3-26.76,26.84-26.77q67.49,0,135,0H313v-5.84c0-17.33-.16-34.66.09-52a59.77,59.77,0,0,1,2.07-16.25c3.51-11.55,16.43-15.12,25.56-7.27,20.3,17.47,40.39,35.18,60.64,52.71q39.42,34.13,78.94,68.14C492.63,291.05,504.84,301.82,517.68,313Z"/></g></g></svg>