<svg xmlns="http://www.w3.org/2000/svg" viewBox="440 0 642.36 642">
    <defs>
        <style>
            .cls-1 {
                fill: #ce4c41;
            }
            .cls-2,
            .cls-3,
            .cls-5 {
                fill: #f1c11e;
            }
            .cls-3,
            .cls-5 {
                font-size: 148.64px;
            }
            .cls-3 {
                font-family: Lato-Regular, Lato;
            }
            .cls-4 {
                letter-spacing: -0.07em;
            }
            .cls-5 {
                font-family: Lato-Light, Lato;
                font-weight: 300;
            }
        </style>
    </defs>
    <title>marpa Original</title>
    <g id="Capa_2" data-name="Capa 2">
        <g id="Capa_1-2" data-name="Capa 1">
            <polygon
                class="cls-1"
                points="467.82 378.43 470.14 389.79 465.78 390.68 462.39 374.04 490.78 368.25 491.85 373.53 467.82 378.43"
            />
            <rect
                class="cls-1"
                x="478.01"
                y="424.22"
                width="28.97"
                height="5.41"
                transform="translate(-122.55 211.22) rotate(-21.59)"
            />
            <path
                class="cls-1"
                d="M509.53,482.89a14.25,14.25,0,0,0,2,2.5,13.78,13.78,0,0,0,2.16,1.68l4.45-2.83-2-3.06a1.11,1.11,0,0,1-.2-.85.94.94,0,0,1,.43-.63l2.57-1.65,5.18,8.13-9.88,6.3a16.32,16.32,0,0,1-2.41-1.18,13.9,13.9,0,0,1-2.18-1.63,18.92,18.92,0,0,1-2-2.13,26.14,26.14,0,0,1-1.95-2.7,15.11,15.11,0,0,1-2.2-5.51,13.57,13.57,0,0,1,2.43-10.61,15.81,15.81,0,0,1,4.42-4.13,16.57,16.57,0,0,1,5.63-2.32,13.74,13.74,0,0,1,5.57,0,13.48,13.48,0,0,1,5.11,2.36,17.08,17.08,0,0,1,4.28,4.69,16.33,16.33,0,0,1,2.41,5.74,14.14,14.14,0,0,1,.06,5.18h-2.91a1.36,1.36,0,0,1-1.27-.64,1.72,1.72,0,0,1-.26-1c0-.5,0-1-.07-1.52a8.79,8.79,0,0,0-.23-1.61,11.93,11.93,0,0,0-.59-1.78,14.29,14.29,0,0,0-1.11-2.07,10,10,0,0,0-2.69-2.88,8.32,8.32,0,0,0-3.33-1.38,9.28,9.28,0,0,0-3.73.15,12.64,12.64,0,0,0-3.91,1.7,13.27,13.27,0,0,0-3.38,3,9.62,9.62,0,0,0-1.73,3.42,8.59,8.59,0,0,0-.1,3.64,9.87,9.87,0,0,0,1.44,3.6"
            />
            <polygon
                class="cls-1"
                points="556.04 544.5 552.2 540.68 561.12 531.7 551.5 522.12 542.56 531.09 538.72 527.26 559.15 506.73 563 510.56 554.21 519.39 563.84 528.97 572.63 520.13 576.48 523.97 556.04 544.5"
            />
            <polygon
                class="cls-1"
                points="622.84 558.07 620.45 561.8 613.11 557.08 599.84 577.72 595.3 574.8 608.59 554.17 601.22 549.43 603.62 545.7 622.84 558.07"
            />
            <rect
                class="cls-1"
                x="637.19"
                y="585.54"
                width="28.97"
                height="5.41"
                transform="translate(-140.56 966.5) rotate(-67.59)"
            />
            <path
                class="cls-1"
                d="M699.05,588.45a1.66,1.66,0,0,1,.4.2,2,2,0,0,1,.31.33c.09.14.19.31.31.52l11.11,22c0-.47.09-.92.16-1.37s.14-.85.22-1.23L715,591.61l4.65.93L714,621l-2.73-.55a2.49,2.49,0,0,1-1-.4,2.37,2.37,0,0,1-.66-.87l-11.08-21.89q-.06.64-.15,1.26c-.06.43-.13.8-.2,1.14l-3.49,17.45-4.65-.93,5.67-28.41,2.77.55a5.51,5.51,0,0,1,.59.15"
            />
            <path
                class="cls-1"
                d="M770.49,620.38a13.23,13.23,0,0,0,3.17-.4,13.67,13.67,0,0,0,2.55-1l-.12-5.27-3.63.07a1.14,1.14,0,0,1-.82-.26,1,1,0,0,1-.31-.71l-.08-3,9.64-.22.27,11.72a15.66,15.66,0,0,1-2.28,1.45,14.91,14.91,0,0,1-2.52,1,18.73,18.73,0,0,1-2.88.63,25.79,25.79,0,0,1-3.32.27,15.12,15.12,0,0,1-5.85-1,13.88,13.88,0,0,1-4.67-3,14,14,0,0,1-3.15-4.63,16,16,0,0,1-1.22-5.92,16.67,16.67,0,0,1,.93-6,13.32,13.32,0,0,1,2.92-4.75,13.07,13.07,0,0,1,4.66-3.15,17,17,0,0,1,6.23-1.23,16.35,16.35,0,0,1,6.16.92,14.19,14.19,0,0,1,4.46,2.63l-1.51,2.48a1.4,1.4,0,0,1-1.2.77,1.79,1.79,0,0,1-1-.29l-1.33-.74a8.55,8.55,0,0,0-1.5-.62,11,11,0,0,0-1.83-.42,12.9,12.9,0,0,0-2.34-.14,9.7,9.7,0,0,0-3.85.82,8.06,8.06,0,0,0-2.92,2.12,9.32,9.32,0,0,0-1.81,3.26,12.67,12.67,0,0,0-.57,4.23,13.16,13.16,0,0,0,.8,4.44,9.38,9.38,0,0,0,2,3.25,8.45,8.45,0,0,0,3,2,10.15,10.15,0,0,0,3.82.62"
            />
            <path
                class="cls-1"
                d="M870.86,579a1.53,1.53,0,0,1-.24.77,1.39,1.39,0,0,1-.58.41,1.74,1.74,0,0,1-.95,0l-1.36-.22a9.59,9.59,0,0,0-1.73-.06,6.71,6.71,0,0,0-2.12.49,6.06,6.06,0,0,0-1.72,1,4.22,4.22,0,0,0-1,1.21,3,3,0,0,0-.36,1.38,3.55,3.55,0,0,0,.27,1.48,2.55,2.55,0,0,0,1.15,1.37,4.57,4.57,0,0,0,1.83.54,14.58,14.58,0,0,0,2.31,0c.84-.06,1.69-.1,2.58-.14a26.08,26.08,0,0,1,2.65,0,8.59,8.59,0,0,1,2.51.57,6.45,6.45,0,0,1,2.2,1.44,7.64,7.64,0,0,1,1.64,2.65,9.93,9.93,0,0,1,.71,3.67,8.65,8.65,0,0,1-.75,3.49,9.36,9.36,0,0,1-2.22,3,11.58,11.58,0,0,1-3.71,2.22,13.64,13.64,0,0,1-2.64.74,15.22,15.22,0,0,1-2.68.22A12.81,12.81,0,0,1,864,605a10.87,10.87,0,0,1-2.36-.76l.52-3a2.05,2.05,0,0,1,.33-.64,1.34,1.34,0,0,1,.58-.43,1.86,1.86,0,0,1,1.15,0c.46.11,1,.23,1.61.34a10,10,0,0,0,2.07.18,7.15,7.15,0,0,0,2.54-.55,5.29,5.29,0,0,0,2.93-2.31,3.9,3.9,0,0,0,0-3.38,2.88,2.88,0,0,0-1.21-1.53,4.53,4.53,0,0,0-1.84-.58,11.13,11.13,0,0,0-2.31,0c-.82.08-1.67.15-2.54.2a21,21,0,0,1-2.63,0,7.85,7.85,0,0,1-2.53-.59,6.53,6.53,0,0,1-2.22-1.55,8.47,8.47,0,0,1-1.75-2.9,7.93,7.93,0,0,1-.52-3.1,7.82,7.82,0,0,1,.74-3.16,9.19,9.19,0,0,1,2.1-2.81,10.64,10.64,0,0,1,3.5-2.11,13.4,13.4,0,0,1,4.69-1,10.8,10.8,0,0,1,4.26.76Z"
            />
            <path
                class="cls-1"
                d="M914.6,580.33a3.1,3.1,0,0,1-.42-1.13,3.16,3.16,0,0,1,.06-1.15,2.93,2.93,0,0,1,.51-1,3,3,0,0,1,2-1.23,3,3,0,0,1,1.15.05,3.09,3.09,0,0,1,1,.49,3.31,3.31,0,0,1,.82.89,3,3,0,0,1,.41,1.15,3.33,3.33,0,0,1-.05,1.14,3.06,3.06,0,0,1-.51,1,3.21,3.21,0,0,1-2,1.23,3,3,0,0,1-1.16,0,2.81,2.81,0,0,1-1-.48,3.1,3.1,0,0,1-.81-.91"
            />
            <path
                class="cls-1"
                d="M973.87,539l-3.11,2.76a1.86,1.86,0,0,1-1.11.5,2,2,0,0,1-1.06-.22l-5.54-3-9,8,2.29,5.86a2,2,0,0,1,.09,1,1.85,1.85,0,0,1-.62,1l-3.13,2.77L942,528.45l4.13-3.64Zm-21.29,4.22,6.92-6.12-9-4.89c-.41-.21-.87-.47-1.4-.78s-1.09-.65-1.69-1c.32.63.6,1.23.85,1.79s.47,1.06.63,1.51Z"
            />
            <path
                class="cls-1"
                d="M997.24,508.85a3,3,0,0,1-.79-.91,2.64,2.64,0,0,1-.36-1.1,3.28,3.28,0,0,1,.09-1.16,3.06,3.06,0,0,1,.56-1.09,3,3,0,0,1,.92-.78,2.8,2.8,0,0,1,1.09-.36,3.09,3.09,0,0,1,2.24.63,3.12,3.12,0,0,1,.79.92,3.28,3.28,0,0,1,.35,1.1,2.8,2.8,0,0,1-.1,1.14,3.2,3.2,0,0,1-.55,1.07,3.06,3.06,0,0,1-.92.81,3.33,3.33,0,0,1-1.1.37,2.65,2.65,0,0,1-1.15-.08,3,3,0,0,1-1.07-.56"
            />
            <path
                class="cls-1"
                d="M1012.44,447a1.67,1.67,0,0,1,.31.75,1.4,1.4,0,0,1-.18.69,1.86,1.86,0,0,1-.7.65c-.34.19-.74.43-1.17.71a9.35,9.35,0,0,0-1.37,1.07,6.25,6.25,0,0,0-1.29,1.74,6.18,6.18,0,0,0-.7,1.85,4,4,0,0,0,0,1.58,2.93,2.93,0,0,0,.61,1.31,3.82,3.82,0,0,0,1.15.94,2.5,2.5,0,0,0,1.78.31,4.73,4.73,0,0,0,1.74-.77,14.89,14.89,0,0,0,1.79-1.47c.6-.59,1.22-1.18,1.87-1.78s1.34-1.15,2.05-1.68a8.86,8.86,0,0,1,2.3-1.2,6.69,6.69,0,0,1,2.59-.31,7.33,7.33,0,0,1,3,1,9.92,9.92,0,0,1,2.92,2.33,8.6,8.6,0,0,1,1.69,3.15,9.28,9.28,0,0,1,.25,3.74,11.66,11.66,0,0,1-1.39,4.1,14.47,14.47,0,0,1-1.53,2.26,14.9,14.9,0,0,1-1.91,1.9,13.37,13.37,0,0,1-2.16,1.45,10.52,10.52,0,0,1-2.28.93l-1.53-2.6a2.31,2.31,0,0,1-.16-.7,1.43,1.43,0,0,1,.16-.69,2,2,0,0,1,.88-.75c.42-.22.91-.47,1.45-.78a9.46,9.46,0,0,0,1.69-1.2,7.17,7.17,0,0,0,1.6-2.07,5.26,5.26,0,0,0,.73-3.65,3.91,3.91,0,0,0-2.15-2.61,2.87,2.87,0,0,0-1.9-.38,4.5,4.5,0,0,0-1.8.75A11,11,0,0,0,1019,459c-.58.59-1.19,1.19-1.82,1.79a23.29,23.29,0,0,1-2,1.7,8.15,8.15,0,0,1-2.31,1.18,6.89,6.89,0,0,1-2.71.26,8.72,8.72,0,0,1-3.2-1.1,7.9,7.9,0,0,1-3.88-4.91,9.23,9.23,0,0,1-.22-3.51,10.78,10.78,0,0,1,1.31-3.86,13.41,13.41,0,0,1,3-3.78,11,11,0,0,1,3.73-2.18Z"
            />
            <path
                class="cls-1"
                d="M1046.7,419.74a2.88,2.88,0,0,1-1-.6,2.68,2.68,0,0,1-.7-.91,3.05,3.05,0,0,1-.3-1.13,3,3,0,0,1,.76-2.26,3.08,3.08,0,0,1,.92-.7,3.14,3.14,0,0,1,1.12-.3,3.1,3.1,0,0,1,1.2.15,3,3,0,0,1,1,.61,3.29,3.29,0,0,1,.71.92,3,3,0,0,1,.28,1.1,2.89,2.89,0,0,1-.16,1.2,3,3,0,0,1-.61,1.06,2.81,2.81,0,0,1-.9.72,2.62,2.62,0,0,1-1.11.3,2.93,2.93,0,0,1-1.2-.16"
            />
            <path
                class="cls-1"
                d="M642.88,60.43l1.09,1c0-.52-.05-1-.06-1.54a14.58,14.58,0,0,1,0-1.48l1-18.17a2.13,2.13,0,0,1,.11-.57.94.94,0,0,1,.23-.4,2.08,2.08,0,0,1,.39-.29c.14-.08.33-.17.55-.27L649.93,37,662.1,63.31l-4.3,2-7.87-17c-.15-.31-.29-.67-.45-1s-.31-.78-.45-1.18l-1,18.58a2.34,2.34,0,0,1-.34,1.13,2,2,0,0,1-.89.75l-.67.31a2,2,0,0,1-1.15.19,2.22,2.22,0,0,1-1.07-.47l-15-11.23c.24.38.46.75.65,1.13s.36.72.52,1.05l7.87,17-4.31,2L621.42,50.22l3.69-1.71a5.91,5.91,0,0,1,.57-.25,2.42,2.42,0,0,1,.47-.11,1.33,1.33,0,0,1,.47.08,2.09,2.09,0,0,1,.51.29l14.61,11c.38.29.76.6,1.14.94"
            />
            <path
                class="cls-1"
                d="M721.77,47.58l-4.09.81a1.77,1.77,0,0,1-1.2-.12,2.09,2.09,0,0,1-.81-.72l-3.27-5.39-11.78,2.36-1,6.22a1.92,1.92,0,0,1-.44.94,1.81,1.81,0,0,1-1.07.6l-4.1.82,5.51-30.64,5.4-1.07Zm-20.53-7.07,9-1.8L705,30c-.25-.39-.52-.85-.82-1.38s-.62-1.12-.93-1.75c-.05.71-.1,1.36-.17,2s-.14,1.16-.22,1.62Z"
            />
            <path
                class="cls-1"
                d="M761,33.8l-.19,11.32L755.44,45l.5-29,8.84.15a18.88,18.88,0,0,1,5.07.69,10.17,10.17,0,0,1,3.43,1.77,6.69,6.69,0,0,1,1.93,2.67,8.6,8.6,0,0,1,.57,3.4,8.63,8.63,0,0,1-.47,2.75A8.06,8.06,0,0,1,774,29.84a8.37,8.37,0,0,1-2,1.83,10.39,10.39,0,0,1-2.74,1.23A5.32,5.32,0,0,1,771,34.6l7.06,10.82-4.84-.08A2.28,2.28,0,0,1,772,45a2.35,2.35,0,0,1-.82-.81l-5.93-9.38a2.32,2.32,0,0,0-.73-.76,2.72,2.72,0,0,0-1.21-.24Zm.07-3.86,3.37.06a8.59,8.59,0,0,0,2.66-.34,5.21,5.21,0,0,0,1.88-1,4.13,4.13,0,0,0,1.11-1.57,5.27,5.27,0,0,0,.4-2,4.12,4.12,0,0,0-1.39-3.41,7,7,0,0,0-4.42-1.26l-3.45-.06Z"
            />
            <path
                class="cls-1"
                d="M819.56,41.16l-2.28,9.93L812,49.89l6.49-28.23,9.19,2.11a16.31,16.31,0,0,1,4.75,1.79,9.6,9.6,0,0,1,3,2.64,7.33,7.33,0,0,1,1.34,3.31,10.16,10.16,0,0,1-.19,3.78,10.66,10.66,0,0,1-1.54,3.6,8.38,8.38,0,0,1-2.73,2.47,9.85,9.85,0,0,1-3.86,1.12,15.39,15.39,0,0,1-5-.42Zm1-4.11,3.94.91a8,8,0,0,0,2.6.22,4.9,4.9,0,0,0,2-.63,4.41,4.41,0,0,0,1.43-1.39,6.39,6.39,0,0,0,.84-2.08,5.8,5.8,0,0,0,.13-2.13,4.26,4.26,0,0,0-.7-1.81,4.9,4.9,0,0,0-1.55-1.39,8.69,8.69,0,0,0-2.44-.92l-3.94-.91Z"
            />
            <path
                class="cls-1"
                d="M885.4,75.34l-3.79-1.73a1.87,1.87,0,0,1-.9-.8,2,2,0,0,1-.22-1.06l.49-6.28-10.92-5L865.64,65a1.9,1.9,0,0,1-.93.5,1.78,1.78,0,0,1-1.21-.13l-3.8-1.75L882.11,42l5,2.3ZM872.91,57.59l8.39,3.84.81-10.22c0-.46.08-1,.15-1.6s.15-1.26.27-2c-.45.54-.89,1-1.3,1.5s-.78.85-1.12,1.19Z"
            />
            <path
                class="cls-1"
                d="M775.09,191.41v-9.65c0-7-5.68-14.17-12.7-14.17s-12.69,7.16-12.69,14.17v9.65Z"
            />
            <path
                class="cls-1"
                d="M630.27,281.27v-7c0-5.09-4.13-10.29-9.22-10.29s-9.22,5.2-9.22,10.29v7Z"
            />
            <path
                class="cls-1"
                d="M586.31,344.18V339.1c0-3.7-3-7.47-6.7-7.47s-6.69,3.77-6.69,7.47v5.08Z"
            />
            <path
                class="cls-1"
                d="M719,267.94v-6.47c0-4.71-3.81-9.52-8.52-9.52s-8.51,4.81-8.51,9.52v6.47Z"
            />
            <path
                class="cls-1"
                d="M819.79,267.94v-6.47c0-4.71-3.81-9.52-8.52-9.52s-8.51,4.81-8.51,9.52v6.47Z"
            />
            <path
                class="cls-2"
                d="M669,173.86a102.9,102.9,0,0,0-88.73,155c4.56.39,8.44,4.83,8.44,9.86v2.37a103.9,103.9,0,0,0,13.75,14.15l8.57-50a7.58,7.58,0,0,1,3.11-4.94,7.77,7.77,0,0,1,2.91-.58,14,14,0,0,1-8.48-12.81V274.19c0-7.25,5.84-13.61,12.51-13.61s12.51,6.36,12.51,13.61v12.72a14,14,0,0,1-8.68,12.89,5.35,5.35,0,0,1,2.09.5,7.59,7.59,0,0,1,3.12,4.94l10.57,61.68H650.8v-.74a8.55,8.55,0,0,1,6.28-8.23,10.15,10.15,0,0,1-6.23-9.34V338.7c0-5.27,4.24-9.88,9.08-9.88s9.09,4.61,9.09,9.88v9.91a10.07,10.07,0,0,1-6.8,9.53,8.55,8.55,0,0,1,5.65,8v.74h.74a8.55,8.55,0,0,1,8.54,8.54,8.45,8.45,0,0,1-1,3.92,102.49,102.49,0,0,0,40.3-11.33V354.49h-17v-2.6h-2.61V319.28a9.63,9.63,0,0,1,.51-19.25h2.1v-2.11a9.64,9.64,0,0,1,19.27,0V300h18.56l13.54-79c.14-.8,1.48-1.4,3.44-1.8A102.82,102.82,0,0,0,669,173.86m53.09,88v11.75c0,6.7-5.41,12.58-11.57,12.58S699,280.27,699,273.57V261c0-6.7,5.41-12.58,11.56-12.58s11.57,5.88,11.57,12.58Z"
            />
            <path
                class="cls-2"
                d="M761.36,0C584.89,0,441.82,143.36,441.82,320.21S584.89,640.43,761.36,640.43,1080.9,497.06,1080.9,320.21,937.84,0,761.36,0m0,633.64c-172.73,0-312.76-140.32-312.76-313.43S588.63,6.79,761.36,6.79s312.77,140.33,312.77,313.42-140,313.43-312.77,313.43"
            />
            <path
                class="cls-2"
                d="M760.68,51.31c-148.51,0-268.91,120.39-268.91,268.9s120.4,268.91,268.91,268.91,268.91-120.39,268.91-268.91S909.19,51.31,760.68,51.31M893.76,482h27.45q-6.21,6.17-12.9,11.85Zm1.92,21.86q-7.5,5.52-15.47,10.45l4.23-19.6Zm40-37.6H890.84l51-65v57.32q-3,3.93-6.16,7.71M986.48,289l-26.89-35.15,13.19-17.26A226,226,0,0,1,986.48,289m-28.93,39.59h21.21l-21.21,27.06Zm0-15.74V277.08l27.35,35.77Zm0-82.25V205.3c2.83,4.84,5.5,9.81,8,14.87Zm-19.94-54.07,2.07,2.57h-4.4Zm4.21,18.31V230.6l-27.35-35.76Zm-27.35,118,27.35-35.77v35.77Zm27.35,15.74v32.08l-25.15-32.08Zm-2-74.74-35.34,46.2V207.63ZM937.72,381,892.37,438.8l10.5-102.32Zm19.83,25.31,9.12,11.63q-4.18,8.83-9.12,17.24Zm.16-25.31,29.78-38a226.18,226.18,0,0,1-13.77,58.4Zm-425-60.74c0-125.88,102-227.93,227.93-227.93a227.18,227.18,0,0,1,161.8,67.42l-3.33,19.4H878.87v-9.84a7.87,7.87,0,0,0-15.73,0v9.84h-9.83a7.87,7.87,0,1,0,0,15.74h9.83v5.89H859.2v3.94h3.94v3.93H859.2v3.94h3.94v3.93H859.2v3.94h3.94v3.93H859.2v3.94h3.94v3.93H859.2v3.93h3.94v3.93H859.2V244h3.94v3.93h15.73V244h3.94v-3.94h-3.94v-3.93h3.94v-3.93h-3.94v-3.93h3.94v-3.94h-3.94v-3.93h3.94v-3.94h-3.94v-3.93h3.94V208.6h-3.94v-3.93h3.94v-3.94h-3.94v-5.89h9.83v118h-7.87a7.87,7.87,0,0,0,0,15.74h7l-13.7,133.6a7.75,7.75,0,0,0-1.16,4.08H861.18a7.87,7.87,0,0,0,0,15.74h9.91l-9.18,42.46a226.38,226.38,0,0,1-40.86,15.58l-7.53-34.81h4.53a5.22,5.22,0,0,0,0-10.44h-5.72L803,403.48a5.2,5.2,0,0,0-.55-10.37h-3.94l-1.28-1.67v-74.9l1.28-1.66h7.85v3.91H803.7v2.6h2.62V324H803.7v2.61h2.62v2.61H803.7v2.6h2.62v2.61H803.7V337h2.62v2.61H803.7v2.6h2.62v2.61H803.7v2.61h2.62v2.61h10.42v-2.61h2.61v-2.61h-2.61v-2.61h2.61v-2.6h-2.61V337h2.61v-2.61h-2.61v-2.61h2.61v-2.6h-2.61v-2.61h2.61V324h-2.61v-2.61h2.61v-2.6h-2.61v-3.91h6.52a5.22,5.22,0,1,0,0-10.43h-6.52v-6.53a5.21,5.21,0,0,0-10.42,0v6.53H783.24l-14.17-82.66c-.37-2.22-12.76-2.22-13.15,0l-14.17,82.66h-26.7v-6.53a5.22,5.22,0,0,0-10.44,0v6.53H698.1a5.22,5.22,0,1,0,0,10.43h6.51v3.91H702v2.6h2.6V324H702v2.61h2.6v2.61H702v2.6h2.6v2.61H702V337h2.6v2.61H702v2.6h2.6v2.61H702v2.61h2.6v2.61h10.44v-2.61h2.6v-2.61h-2.6v-2.61h2.6v-2.6h-2.6V337h2.6v-2.61h-2.6v-2.61h2.6v-2.6h-2.6v-2.61h2.6V324h-2.6v-2.61h2.6v-2.6h-2.6v-3.91h6.52v78.23h-5.22a5.22,5.22,0,0,0,0,10.43H721l-9.08,88.56a5.09,5.09,0,0,0-.78,2.7h-7.84a5.22,5.22,0,0,0,0,10.44h6.58l-7.64,35.33a227.45,227.45,0,0,1-34-11.93,4.12,4.12,0,0,0-3.13-6.8h-4.53l-7.4-72.2a4.11,4.11,0,0,0-.44-8.2h-3.13l-1-1.32V380.9l1-1.32h6.22v3.1h-2.06v2.06h2.06v2.06h-2.06v2.06h2.06v2.06h-2.06V393h2.06v2.07h-2.06v2.06h2.06v2.07h-2.06v2.05h2.06v2.06h-2.06v2.06h2.06v2.07h8.24v-2.07h2.07v-2.06h-2.07v-2.06h2.07v-2.05h-2.07v-2.07h2.07v-2.06h-2.07V393h2.07v-2.06h-2.07v-2.06h2.07V386.8h-2.07v-2.06h2.07v-2.06h-2.07v-3.1h5.16a4.12,4.12,0,0,0,0-8.24h-5.16v-5.16a4.12,4.12,0,0,0-8.24,0v5.16H637.64L626.44,306a3.2,3.2,0,0,0-5.19-2,3.34,3.34,0,0,0-1.49-.68,3.22,3.22,0,0,0-3.71,2.64l-11.21,65.35H583.72v-5.16a4.12,4.12,0,1,0-8.23,0v5.16h-5.16a4.12,4.12,0,1,0,0,8.24h5.16v3.1h-2.07v2.06h2.07v2.06h-2.07v2.06h2.07v2.06h-2.07V393h2.07v2.07h-2.07v2.06h2.07v2.07h-2.07v2.05h2.07v2.06h-2.07v2.06h2.07v2.07h8.23v-2.07h2.06v-2.06h-2.06v-2.06h2.06v-2.05h-2.06v-2.07h2.06v-2.06h-2.06V393h2.06v-2.06h-2.06v-2.06h2.06V386.8h-2.06v-2.06h2.06v-2.06h-2.06v-3.1h5.16v61.86h-4.12a4.12,4.12,0,0,0,0,8.24h3.68l-1.81,17.68a227,227,0,0,1-53.88-147.15m229.75-53,6,6.66a5.62,5.62,0,0,0,.44.41,5.15,5.15,0,0,0-.56.5l-5.93,6.54-5.94-6.54a3.78,3.78,0,0,0-.56-.5,4.27,4.27,0,0,0,.44-.41ZM759,251.93l3.47-20.26L766,251.93a4.11,4.11,0,0,0-1.61,1.06l-1.86,2.06L760.62,253a3.91,3.91,0,0,0-1.59-1.06m8.17,141.18V369.4l18.13,23.71Zm14.06,10.43L767.2,421.47V403.54ZM765.4,304.45a5.11,5.11,0,0,0-6.83,0h-6.13l10.06-11.07,10.06,11.07Zm1.8,200.79h29.25L767.2,529Zm0-10.44V455l31.19,39.79Zm.11-56.55,25.41-32.43,7.64,74.6Zm19.45-60.45L768.55,354l18.21-23.81ZM767.2,338.58v-23.7h18.13Zm.8-51.25,3.4-3.74,1.57,9.2Zm-11,0-5,5.46,1.58-9.2Zm-.22,27.55v23.7l-18.13-23.7Zm-18.13,78.23,18.13-23.71v23.71Zm18.13,10.43v21.25l-16.66-21.25ZM755.42,354,732,384.62V323.36Zm-1.36,84.26L724,476.6l7-67.83Zm2.71,13.43V494.8H723Zm0,53.56v25.93l-31.85-25.93Zm-4.35,35.84-8,6.48A225.41,225.41,0,0,1,712.39,543l6.35-29.34Zm16.53,0,35.41-28.83,6.56,30.33a227.69,227.69,0,0,1-34,5ZM621.25,341.86l4.78,5.27a3.59,3.59,0,0,0,.35.32,5.46,5.46,0,0,0-.45.39L621.25,353l-4.7-5.18a4.09,4.09,0,0,0-.44-.39l.35-.32Zm-2.75-12,2.75-16,2.74,16a3.11,3.11,0,0,0-1.27.84l-1.47,1.62-1.49-1.62a3.08,3.08,0,0,0-1.26-.84m5,41.52a4.05,4.05,0,0,0-5.4,0h-4.85l8-8.75,7.94,8.75ZM625,422.69l14.34,18.75H625Zm0,27h11.12L625,463.86Zm20.18,1.81,6,59L625,477.12Zm-4.72-22.16L626,410.51l14.39-18.83Zm-15.46-31V379.58H639.3Zm.63-40.53,2.69-2.95,1.24,7.27Zm-8.7,0L613,362.12l1.24-7.27Zm-.17,21.78v18.75l-14.34-18.75Zm-1.07,30.93-18.52,24.21V386.29Zm1.07,12.18v18.75H602.38Zm0,27v16.81l-13.18-16.81Zm0,47.24q-2.19-1.79-4.35-3.63l4.35-5.53Zm8.24-6.54,21,26.83a227.37,227.37,0,0,1-21-13.87Zm-30.9-14.66,2.25-21.9,18.26,23.3-8.37,10.67q-6.29-5.81-12.14-12.07"
            />
            <path
                class="cls-2"
                d="M750.35,202.11c1.29,5.95,6.34,11.26,12.37,11.26s11.09-5.31,12.37-11.26Z"
            />
            <path
                class="cls-2"
                d="M776.44,197.72H749a.89.89,0,0,1-.89-.89v-.92A.89.89,0,0,1,749,195h27.43a.89.89,0,0,1,.88.89v.92a.89.89,0,0,1-.88.89"
            />
            <path
                class="cls-2"
                d="M858.74,144.3c1.29,5.95,6.34,11.26,12.37,11.26s11.09-5.31,12.38-11.26Z"
            />
            <path
                class="cls-2"
                d="M884.83,139.91H857.4a.89.89,0,0,1-.89-.89v-.92a.9.9,0,0,1,.89-.89h27.43a.91.91,0,0,1,.89.89V139a.9.9,0,0,1-.89.89"
            />
            <path
                class="cls-2"
                d="M612.06,288.92c.94,4.33,4.6,8.18,9,8.18s8-3.85,9-8.18Z"
            />
            <path
                class="cls-2"
                d="M631,285.73H611.09a.64.64,0,0,1-.64-.64v-.67a.65.65,0,0,1,.64-.65H631a.65.65,0,0,1,.65.65v.67a.64.64,0,0,1-.65.64"
            />
            <path
                class="cls-2"
                d="M573.1,349.74c.68,3.14,3.34,5.94,6.51,5.94s5.85-2.8,6.53-5.94Z"
            />
            <path
                class="cls-2"
                d="M586.66,347.43H572.57a.65.65,0,0,1-.65-.64v-.14a.65.65,0,0,1,.65-.65h14.09a.65.65,0,0,1,.66.65v.14a.65.65,0,0,1-.66.64"
            />
            <path
                class="cls-2"
                d="M702.21,275c.86,4,4.26,7.56,8.3,7.56S718,279,718.81,275Z"
            />
            <path
                class="cls-2"
                d="M719.67,272.06h-18.3a.65.65,0,0,1-.65-.64v-.52a.65.65,0,0,1,.65-.65h18.3a.65.65,0,0,1,.64.65v.52a.64.64,0,0,1-.64.64"
            />
            <path
                class="cls-2"
                d="M803,275c.86,4,4.25,7.56,8.3,7.56s7.44-3.57,8.3-7.56Z"
            />
            <path
                class="cls-2"
                d="M820.42,272.06h-18.3a.64.64,0,0,1-.64-.64v-.52a.64.64,0,0,1,.64-.65h18.3a.64.64,0,0,1,.64.65v.52a.64.64,0,0,1-.64.64"
            />
            <path
                class="cls-2"
                d="M653.41,349.74c.68,3.14,3.34,5.94,6.52,5.94s5.84-2.8,6.52-5.94Z"
            />
            <path
                class="cls-2"
                d="M667,347.43h-14.1a.65.65,0,0,1-.65-.64v-.14a.65.65,0,0,1,.65-.65H667a.65.65,0,0,1,.65.65v.14a.65.65,0,0,1-.65.64"
            />
            <path
                class="cls-1"
                d="M666.62,344.18V339.1c0-3.7-3-7.47-6.69-7.47s-6.7,3.77-6.7,7.47v5.08Z"
            />
            <path
                class="cls-1"
                d="M859,118.91a14.39,14.39,0,0,0-.95,5v9.65h25.4v-.76A226.14,226.14,0,0,0,859,118.91"
            />
        </g>
    </g>
</svg>
